#!OML:ASF H:\ManfredObstacles\Project 1\Capture day 2\Session 1\male.ASF
:FULLY-SPECIFIED
:DEGREES
422
root -0.537262 15.9709 9.32678 -175.049 2.40885 178.632
lowerback -5.72698 -0.726329 -5.46638
upperback 1.77219 -0.509651 -0.297461
thorax 5.1133 -0.410103 2.70932
lowerneck -34.9607 0.338372 4.71786
upperneck 38.4843 -0.815281 0.213467
head 21.5364 1.0804 -0.689639
rclavicle 8.02593e-015 1.59028e-015
rhumerus -40.7083 -24.8509 -71.4289
rradius 24.7987
rwrist 36.8235
rhand -0.7474 -6.96624
rfingers 7.12502
rthumb 24.8743 -35.3679
lclavicle 8.02593e-015 1.59028e-015
lhumerus -25.4658 9.08943 85.2395
lradius 25.6704
lwrist -45.802
lhand 1.53371 5.91008
lfingers 7.12502
lthumb 27.0586 33.9914
rfemur -19.1071 8.97399 19.1576
rtibia 32.9836
rfoot -9.56322 -17.8673
rtoes -14.5776
lfemur -15.0442 -2.92841 -27.398
ltibia 27.1516
lfoot -5.31084 14.3275
ltoes -4.18589
423
root -0.53679 15.9736 9.29916 -174.949 2.50767 178.698
lowerback -5.82477 -0.708471 -5.43661
upperback 1.71559 -0.486772 -0.268795
thorax 5.10724 -0.397808 2.72453
lowerneck -35.1179 0.36374 4.72603
upperneck 38.5248 -0.808116 0.230721
head 21.6078 1.08703 -0.680032
rclavicle 9.44227e-016 8.15017e-015
rhumerus -40.6834 -24.6701 -71.5062
rradius 24.9435
rwrist 36.6578
rhand -0.72563 -6.95662
rfingers 7.12502
rthumb 24.8952 -35.3554
lclavicle 9.44227e-016 8.15017e-015
lhumerus -25.722 9.38507 85.0985
lradius 25.3311
lwrist -46.1292
lhand 1.67866 5.83855
lfingers 7.12502
lthumb 27.1972 33.8982
rfemur -19.029 8.98379 19.2148
rtibia 32.8414
rfoot -9.65674 -17.772
rtoes -14.5748
lfemur -15.0203 -2.92762 -27.3199
ltibia 27.1275
lfoot -5.36943 14.4185
ltoes -4.17915
424
root -0.536165 15.9762 9.27254 -174.852 2.62301 178.761
lowerback -5.91099 -0.686908 -5.41445
upperback 1.66559 -0.458746 -0.239432
thorax 5.10118 -0.383259 2.74537
lowerneck -35.3516 0.416288 4.7761
upperneck 38.5701 -0.783502 0.2181
head 21.7037 1.10017 -0.689144
rclavicle 6.70898e-015 1.74931e-014
rhumerus -40.6379 -24.5092 -71.5806
rradius 25.0824
rwrist 36.5358
rhand -0.729535 -6.91944
rfingers 7.12502
rthumb 24.8914 -35.3187
lclavicle 6.70898e-015 1.74931e-014
lhumerus -25.9566 9.70872 84.9457
lradius 24.9643
lwrist -46.4747
lhand 1.81949 5.76811
lfingers 7.12502
lthumb 27.3319 33.8066
rfemur -18.963 9.0034 19.2708
rtibia 32.71
rfoot -9.73272 -17.6683
rtoes -14.5659
lfemur -14.9979 -2.93146 -27.2463
ltibia 27.1063
lfoot -5.41643 14.5276
ltoes -4.16583
425
root -0.535321 15.9784 9.24703 -174.761 2.74649 178.822
lowerback -5.98444 -0.663167 -5.40089
upperback 1.62309 -0.427775 -0.206799
thorax 5.0956 -0.367682 2.77483
lowerneck -35.5093 0.46092 4.82895
upperneck 38.5705 -0.765613 0.196781
head 21.7475 1.10742 -0.705995
rclavicle 4.39811e-015 1.55052e-014
rhumerus -40.5682 -24.3628 -71.651
rradius 25.212
rwrist 36.4069
rhand -0.749729 -6.87362
rfingers 7.12502
rthumb 24.8721 -35.2756
lclavicle 4.39811e-015 1.55052e-014
lhumerus -26.1931 10.0415 84.7885
lradius 24.594
lwrist -46.8186
lhand 1.95213 5.70356
lfingers 7.12502
lthumb 27.4588 33.722
rfemur -18.9051 9.02721 19.3291
rtibia 32.5906
rfoot -9.79004 -17.5693
rtoes -14.553
lfemur -14.9723 -2.9351 -27.176
ltibia 27.0858
lfoot -5.45518 14.6466
ltoes -4.15833
426
root -0.534266 15.9806 9.22245 -174.675 2.87884 178.881
lowerback -6.05096 -0.637839 -5.3915
upperback 1.58543 -0.394288 -0.177281
thorax 5.09096 -0.350959 2.8037
lowerneck -35.7011 0.518879 4.90878
upperneck 38.5646 -0.744112 0.158908
head 21.7961 1.11608 -0.735795
rclavicle -6.93262e-015 -8.94531e-015
rhumerus -40.4814 -24.2367 -71.724
rradius 25.3325
rwrist 36.2818
rhand -0.785511 -6.828
rfingers 7.12502
rthumb 24.8378 -35.2347
lclavicle -6.93262e-015 -8.94531e-015
lhumerus -26.4393 10.3963 84.6041
lradius 24.2276
lwrist -47.2298
lhand 2.07565 5.62581
lfingers 7.12502
lthumb 27.5769 33.6255
rfemur -18.8586 9.05774 19.3902
rtibia 32.4857
rfoot -9.83814 -17.4786
rtoes -14.5301
lfemur -14.9434 -2.93526 -27.1084
ltibia 27.0621
lfoot -5.48416 14.7738
ltoes -4.155
427
root -0.532913 15.9826 9.19867 -174.598 3.01449 178.941
lowerback -6.1057 -0.612366 -5.38086
upperback 1.5489 -0.361012 -0.15245
thorax 5.08075 -0.334018 2.82705
lowerneck -35.8455 0.591124 5.02825
upperneck 38.5222 -0.714672 0.0985164
head 21.8063 1.12795 -0.782822
rclavicle 4.67144e-015 -1.03368e-014
rhumerus -40.3855 -24.1474 -71.7879
rradius 25.4263
rwrist 36.1647
rhand -0.836725 -6.78535
rfingers 7.12502
rthumb 24.7887 -35.1988
lclavicle 4.67144e-015 -1.03368e-014
lhumerus -26.7071 10.7373 84.4021
lradius 23.8776
lwrist -47.5583
lhand 2.18483 5.58033
lfingers 7.12502
lthumb 27.6813 33.5633
rfemur -18.8148 9.09166 19.4567
rtibia 32.3964
rfoot -9.88529 -17.3992
rtoes -14.5067
lfemur -14.9042 -2.94307 -27.0418
ltibia 27.0345
lfoot -5.49587 14.9156
ltoes -4.16175
428
root -0.531354 15.9844 9.17545 -174.53 3.15495 178.993
lowerback -6.15416 -0.585788 -5.3753
upperback 1.51357 -0.32567 -0.133868
thorax 5.06805 -0.315961 2.847
lowerneck -36.0619 0.648621 5.10167
upperneck 38.4964 -0.703872 0.0705878
head 21.8474 1.13087 -0.810018
rclavicle -1.00883e-014 1.59028e-015
rhumerus -40.2864 -24.0637 -71.8575
rradius 25.5117
rwrist 36.0395
rhand -0.893649 -6.77862
rfingers 7.12502
rthumb 24.7341 -35.1996
lclavicle -1.00883e-014 1.59028e-015
lhumerus -26.9921 11.0782 84.1788
lradius 23.5457
lwrist -47.887
lhand 2.33515 5.56973
lfingers 7.12502
lthumb 27.8251 33.5295
rfemur -18.7748 9.11916 19.5191
rtibia 32.3237
rfoot -9.94296 -17.3184
rtoes -14.4773
lfemur -14.8559 -2.95817 -26.9844
ltibia 27.0029
lfoot -5.49283 15.0733
ltoes -4.17331
429
root -0.529553 15.9859 9.15293 -174.469 3.29166 179.042
lowerback -6.19603 -0.562884 -5.37328
upperback 1.48093 -0.295005 -0.117984
thorax 5.05484 -0.300253 2.86566
lowerneck -36.0896 0.676327 5.15183
upperneck 38.4268 -0.710885 0.0656928
head 21.8062 1.12805 -0.825415
rclavicle -3.15571e-015 -3.18055e-015
rhumerus -40.1824 -23.9918 -71.9265
rradius 25.5892
rwrist 35.9011
rhand -0.945959 -6.78548
rfingers 7.12502
rthumb 24.684 -35.2133
lclavicle -3.15571e-015 -3.18055e-015
lhumerus -27.281 11.4754 83.9169
lradius 23.2
lwrist -48.2672
lhand 2.49744 5.55564
lfingers 7.12502
lthumb 27.9802 33.4902
rfemur -18.7371 9.13438 19.5807
rtibia 32.2665
rfoot -10.0052 -17.2364
rtoes -14.4416
lfemur -14.8013 -2.97989 -26.9317
ltibia 26.9702
lfoot -5.48135 15.2383
ltoes -4.18504
430
root -0.527553 15.987 9.13102 -174.411 3.42119 179.084
lowerback -6.24143 -0.540439 -5.38003
upperback 1.45045 -0.263697 -0.104329
thorax 5.04593 -0.284546 2.88701
lowerneck -36.1748 0.709497 5.2126
upperneck 38.3888 -0.715105 0.0501925
head 21.8026 1.12785 -0.847079
rclavicle 2.33572e-015 2.06736e-014
rhumerus -40.0835 -23.9474 -71.9816
rradius 25.6674
rwrist 35.7352
rhand -0.98108 -6.80437
rfingers 7.12502
rthumb 24.6503 -35.2368
lclavicle 2.33572e-015 2.06736e-014
lhumerus -27.5659 11.9291 83.6225
lradius 22.8324
lwrist -48.6988
lhand 2.64909 5.52915
lfingers 7.12502
lthumb 28.1252 33.44
rfemur -18.7045 9.12534 19.6359
rtibia 32.2242
rfoot -10.0718 -17.144
rtoes -14.4089
lfemur -14.7454 -3.00796 -26.8876
ltibia 26.9379
lfoot -5.46708 15.4055
ltoes -4.19361
431
root -0.52527 15.9877 9.11004 -174.358 3.54105 179.122
lowerback -6.29135 -0.522293 -5.3928
upperback 1.43081 -0.237124 -0.0878478
thorax 5.05145 -0.271987 2.91417
lowerneck -36.2838 0.726494 5.23864
upperneck 38.3715 -0.731021 0.0529045
head 21.8196 1.12225 -0.856053
rclavicle 4.05024e-015 -2.78299e-014
rhumerus -39.9821 -23.9232 -72.0246
rradius 25.7472
rwrist 35.6191
rhand -1.01284 -6.81667
rfingers 7.12502
rthumb 24.6199 -35.2533
lclavicle 4.05024e-015 -2.78299e-014
lhumerus -27.8276 12.4528 83.3019
lradius 22.44
lwrist -49.1763
lhand 2.80476 5.51315
lfingers 7.12502
lthumb 28.274 33.3994
rfemur -18.6756 9.09326 19.6895
rtibia 32.1929
rfoot -10.1407 -17.0402
rtoes -14.3854
lfemur -14.6922 -3.03558 -26.8463
ltibia 26.9112
lfoot -5.45706 15.5659
ltoes -4.19907
432
root -0.522779 15.988 9.08973 -174.308 3.65319 179.15
lowerback -6.346 -0.507605 -5.41594
upperback 1.426 -0.213383 -0.0721368
thorax 5.07557 -0.261866 2.94606
lowerneck -36.31 0.729939 5.25799
upperneck 38.3419 -0.753429 0.0601979
head 21.8054 1.11487 -0.86285
rclavicle 1.05107e-014 7.95139e-016
rhumerus -39.8656 -23.9102 -72.0709
rradius 25.8362
rwrist 35.5217
rhand -1.04567 -6.82205
rfingers 7.12502
rthumb 24.5884 -35.2629
lclavicle 1.05107e-014 7.95139e-016
lhumerus -28.0514 13.086 82.9378
lradius 22.0089
lwrist -49.8041
lhand 2.9463 5.46765
lfingers 7.12502
lthumb 28.4092 33.3315
rfemur -18.65 9.04085 19.732
rtibia 32.1682
rfoot -10.2121 -16.9276
rtoes -14.3911
lfemur -14.6453 -3.06066 -26.8165
ltibia 26.8956
lfoot -5.45235 15.7202
ltoes -4.20822
433
root -0.52006 15.9879 9.07025 -174.265 3.76144 179.18
lowerback -6.38652 -0.491593 -5.43684
upperback 1.4229 -0.188947 -0.0557051
thorax 5.09335 -0.251228 2.97757
lowerneck -36.3144 0.724242 5.25946
upperneck 38.3138 -0.781239 0.0828868
head 21.7863 1.10598 -0.859619
rclavicle -1.88845e-015 9.74045e-015
rhumerus -39.7545 -23.8986 -72.1157
rradius 25.931
rwrist 35.4402
rhand -1.06586 -6.83615
rfingers 7.12502
rthumb 24.5691 -35.2796
lclavicle -1.88845e-015 9.74045e-015
lhumerus -28.269 13.7903 82.5361
lradius 21.5532
lwrist -50.5268
lhand 3.0773 5.42605
lfingers 7.12502
lthumb 28.5344 33.2689
rfemur -18.6215 8.98456 19.7763
rtibia 32.1454
rfoot -10.2766 -16.8149
rtoes -14.4294
lfemur -14.602 -3.07873 -26.7854
ltibia 26.8942
lfoot -5.45322 15.87
ltoes -4.22677
434
root -0.517019 15.9873 9.05179 -174.23 3.86509 179.218
lowerback -6.41695 -0.474444 -5.44504
upperback 1.42665 -0.16446 -0.0400539
thorax 5.11243 -0.24036 3.00115
lowerneck -36.2513 0.686091 5.21186
upperneck 38.2922 -0.834216 0.147823
head 21.7533 1.08959 -0.831709
rclavicle -1.2921e-015 -2.18663e-015
rhumerus -39.6329 -23.8783 -72.1798
rradius 26.0265
rwrist 35.3604
rhand -1.1013 -6.84516
rfingers 7.12502
rthumb 24.5351 -35.2933
lclavicle -1.2921e-015 -2.18663e-015
lhumerus -28.4749 14.5831 82.0821
lradius 21.0744
lwrist -51.4289
lhand 3.18049 5.3632
lfingers 7.12502
lthumb 28.633 33.1895
rfemur -18.5906 8.94386 19.8312
rtibia 32.1232
rfoot -10.3264 -16.7201
rtoes -14.4994
lfemur -14.5628 -3.08654 -26.7433
ltibia 26.9054
lfoot -5.45808 16.0095
ltoes -4.25362
435
root -0.513781 15.9862 9.03388 -174.205 3.96447 179.255
lowerback -6.42655 -0.45828 -5.44465
upperback 1.42092 -0.143241 -0.030378
thorax 5.10991 -0.229944 3.01334
lowerneck -36.1406 0.648473 5.17584
upperneck 38.2673 -0.885625 0.212118
head 21.7054 1.07645 -0.805308
rclavicle 1.46355e-014 2.3059e-014
rhumerus -39.5256 -23.8232 -72.2671
rradius 26.1207
rwrist 35.2387
rhand -1.13765 -6.87117
rfingers 7.12502
rthumb 24.5003 -35.324
lclavicle 1.46355e-014 2.3059e-014
lhumerus -28.7053 15.4454 81.5671
lradius 20.5858
lwrist -52.4168
lhand 3.26836 5.30211
lfingers 7.12502
lthumb 28.717 33.1142
rfemur -18.551 8.92569 19.8866
rtibia 32.1024
rfoot -10.3638 -16.6506
rtoes -14.5922
lfemur -14.5191 -3.08733 -26.7009
ltibia 26.9248
lfoot -5.46499 16.1414
ltoes -4.28751
436
root -0.510451 15.9849 9.01645 -174.189 4.05786 179.283
lowerback -6.42398 -0.442767 -5.44407
upperback 1.41778 -0.122934 -0.0298162
thorax 5.10324 -0.219674 3.0158
lowerneck -36.119 0.614664 5.12511
upperneck 38.2568 -0.939625 0.287256
head 21.6918 1.06107 -0.771777
rclavicle 4.00054e-015 -1.53064e-014
rhumerus -39.4095 -23.7514 -72.3828
rradius 26.2138
rwrist 35.0886
rhand -1.17107 -6.91712
rfingers 7.12502
rthumb 24.4682 -35.3743
lclavicle 4.00054e-015 -1.53064e-014
lhumerus -28.9363 16.3907 80.9919
lradius 20.0861
lwrist -53.5625
lhand 3.35659 5.25036
lfingers 7.12502
lthumb 28.8013 33.0481
rfemur -18.5058 8.92803 19.9314
rtibia 32.0866
rfoot -10.3909 -16.6046
rtoes -14.6973
lfemur -14.4688 -3.08445 -26.6687
ltibia 26.9457
lfoot -5.47361 16.2641
ltoes -4.32401
